<svg xmlns="http://www.w3.org/2000/svg" fill-rule="evenodd" stroke-linejoin="round" stroke-miterlimit="2" clip-rule="evenodd" viewBox="0 0 64 64"><path fill="none" d="M0 0h64v64H0z"/><path d="M58 17c0-6.07-4.928-11-11-11H17C10.93 6 6 10.93 6 17v30c0 6.072 4.93 11 11 11h30c6.072 0 11-4.928 11-11V17ZM34 29.345V26h-8v24h8V38.5c0-2.207 1.793-4 4-4 2.209 0 4 1.793 4 4V50h8V35c0-4.967-4.032-9-9-9a8.985 8.985 0 0 0-7 3.345ZM22 26h-8v24h8V26Zm-4-12c2.208 0 4 1.792 4 4s-1.792 4-4 4-4-1.792-4-4 1.792-4 4-4Z"/></svg>